<svg enable-background="new 0 0 512 512" id="Layer_1" version="1.1"
  viewBox="0 0 512 512" width="100%"
  x="0px" xmlns="http://www.w3.org/2000/svg" y="0px" xml:space="preserve">
<path d="
M349.000000,513.000000
	C287.979095,513.000000 226.958206,513.000000 165.353745,512.632446
	C162.137405,511.172546 159.260651,510.454468 156.913223,508.924377
	C145.491852,501.479614 142.517410,485.014526 149.729874,473.588470
	C155.523071,464.410767 164.079605,461.222351 174.082016,461.072876
	C191.572815,460.811493 209.070358,461.005524 226.565048,460.989746
	C227.995178,460.988464 229.425156,460.841888 230.999924,460.754822
	C230.999924,418.238861 230.979691,376.100433 231.047668,333.962189
	C231.051987,331.289551 230.090164,330.415192 227.544846,329.706940
	C223.092117,328.467926 218.702042,326.796539 214.526962,324.801453
	C192.166962,314.116730 171.600891,300.997437 154.720901,282.406311
	C143.800339,270.378693 135.012009,257.046356 129.197464,242.102524
	C120.663139,220.168777 118.324097,197.070953 120.080269,173.676559
	C121.327095,157.067078 122.570145,140.391983 125.211075,123.970711
	C127.890083,107.312698 131.252335,90.613693 136.197617,74.510704
	C141.872726,56.031326 149.653870,38.201225 156.443893,20.060537
	C159.281494,12.479415 162.570862,5.285016 170.000000,1.000000
	C227.354233,1.000000 284.708466,1.000000 342.632904,1.355599
	C348.921936,2.882904 351.672455,7.223495 353.983185,11.946438
	C363.721893,31.851477 371.987640,52.396442 377.831940,73.735748
	C382.374756,90.322845 385.927216,107.241951 388.824097,124.200653
	C391.345764,138.962769 393.251617,153.956635 393.743378,168.903549
	C394.240753,184.020905 393.192352,199.252701 391.860992,214.349686
	C390.367371,231.285660 383.726166,246.727554 375.164459,261.228333
	C366.389832,276.089722 354.605957,288.409271 341.247284,299.279236
	C324.972961,312.521667 306.722290,322.334961 287.198883,329.656494
	C283.702637,330.967621 282.951477,331.998505 282.956635,335.194641
	C283.022461,375.837799 282.997314,416.481049 283.012512,457.124298
	C283.012970,458.383606 283.198578,459.642822 283.305573,461.000000
	C288.317627,461.000000 292.973358,460.927399 297.626160,461.013153
	C313.861816,461.312317 330.112854,461.323547 346.326538,462.101379
	C360.824188,462.796844 371.505890,478.539581 367.296387,494.271759
	C364.673462,504.074371 357.902191,509.498291 349.000000,513.000000
z" fill="#000000" opacity="1.000000"
  stroke="none"/>
</svg>